<svg xmlns="http://www.w3.org/2000/svg" width="24" height="24" viewBox="0 0 24 24" fill="none"><title id="title">footer_twitter_color</title><path fill-rule="evenodd" clip-rule="evenodd" d="M0 12.124C0 5.566 5.304.25 11.846.25s11.846 5.317 11.846 11.875c0 6.56-5.304 11.876-11.846 11.876S0 18.683 0 12.124z" fill="#FEEE00"/><path fill-rule="evenodd" clip-rule="evenodd" d="M12.083 10.495l.025.411-.414-.05c-1.508-.193-2.826-.847-3.944-1.946l-.547-.545-.141.403c-.298.897-.108 1.845.514 2.482.331.352.257.403-.315.193-.199-.067-.373-.117-.39-.092-.058.058.141.821.299 1.123.215.42.654.83 1.135 1.074l.406.193-.48.008c-.465 0-.481.008-.432.185.166.545.82 1.123 1.55 1.375l.514.176-.448.268a4.657 4.657 0 01-2.22.621c-.373.008-.68.042-.68.067 0 .084 1.011.553 1.6.738 1.764.545 3.86.31 5.435-.62 1.118-.663 2.237-1.98 2.76-3.254.28-.68.563-1.92.563-2.516 0-.386.024-.436.488-.898.274-.268.53-.561.58-.645.083-.16.075-.16-.348-.017-.704.252-.803.218-.455-.16.256-.268.563-.754.563-.897 0-.025-.124.017-.265.093-.15.083-.48.21-.73.285l-.447.142-.406-.276c-.223-.151-.538-.32-.704-.37-.422-.117-1.069-.1-1.45.034-1.036.377-1.69 1.35-1.616 2.415z" fill="#404553"/></svg>