<svg xmlns="http://www.w3.org/2000/svg" width="24" height="24" viewBox="0 0 24 24" fill="none"><title id="title">footer_instagram_color</title><path fill-rule="evenodd" clip-rule="evenodd" d="M0 12C0 5.373 5.36 0 11.97 0s11.97 5.373 11.97 12-5.36 12-11.97 12S0 18.627 0 12z" fill="#FEEE00"/><mask id="a" maskUnits="userSpaceOnUse" x="0" y="0" width="24" height="24"><path fill-rule="evenodd" clip-rule="evenodd" d="M0 12C0 5.373 5.36 0 11.97 0s11.97 5.373 11.97 12-5.36 12-11.97 12S0 18.627 0 12z" fill="#fff"/></mask><g mask="url(#a)"><path fill-rule="evenodd" clip-rule="evenodd" d="M11.97 5.6c-1.733 0-1.95.008-2.632.039-.68.03-1.143.139-1.55.297-.42.163-.775.382-1.13.738a3.143 3.143 0 00-.737 1.134c-.158.407-.266.872-.297 1.553-.03.683-.038.9-.038 2.64 0 1.737.008 1.955.039 2.637.03.682.138 1.147.296 1.554.163.42.381.778.736 1.134.355.355.711.575 1.13.738.407.158.871.266 1.55.297.682.031.9.04 2.633.04 1.734 0 1.95-.009 2.631-.04.68-.03 1.145-.139 1.55-.297.42-.163.776-.383 1.13-.738.356-.356.574-.713.738-1.134.157-.407.264-.872.296-1.553.03-.683.039-.9.039-2.639 0-1.738-.008-1.956-.039-2.639-.032-.681-.14-1.146-.296-1.553a3.142 3.142 0 00-.737-1.134 3.12 3.12 0 00-1.13-.738c-.408-.158-.872-.266-1.551-.297-.681-.031-.898-.039-2.633-.039h.002zm-.572 1.153h.572c1.705 0 1.907.006 2.58.037.623.029.96.133 1.185.22.298.117.51.255.734.48.224.223.362.437.478.735.087.226.191.564.22 1.188.03.675.037.878.037 2.586 0 1.708-.007 1.91-.037 2.585-.029.624-.133.963-.22 1.188a1.98 1.98 0 01-.478.735 1.973 1.973 0 01-.734.479c-.224.088-.562.192-1.185.22-.673.031-.875.038-2.58.038-1.704 0-1.906-.007-2.58-.038-.622-.028-.96-.133-1.185-.22a1.977 1.977 0 01-.734-.479 1.984 1.984 0 01-.477-.736c-.088-.225-.192-.564-.22-1.188-.03-.674-.037-.877-.037-2.586 0-1.71.006-1.91.037-2.585.028-.624.132-.963.22-1.189.115-.298.254-.512.477-.736a1.98 1.98 0 01.734-.479c.225-.088.563-.192 1.186-.22.589-.027.817-.035 2.007-.036v.001zm3.831 1.063a.618.618 0 10.001 1.235.618.618 0 00-.001-1.235zm-3.258.897A3.283 3.283 0 008.691 12a3.282 3.282 0 003.278 3.286c1.811 0 3.278-1.47 3.278-3.286a3.282 3.282 0 00-3.278-3.287zm0 1.154A2.13 2.13 0 0114.098 12a2.13 2.13 0 01-2.128 2.133A2.13 2.13 0 019.843 12a2.13 2.13 0 012.127-2.133z" fill="#404553"/></g></svg>