<svg xmlns="http://www.w3.org/2000/svg" width="24" height="24" viewBox="0 0 24 24" fill="none"><title id="title">footer_linkedin_color</title><path fill-rule="evenodd" clip-rule="evenodd" d="M0 12C0 5.373 5.373 0 12 0s12 5.373 12 12-5.373 12-12 12S0 18.627 0 12z" fill="#FEEE00"/><path fill-rule="evenodd" clip-rule="evenodd" d="M7.777 7.872C8.537 7.872 9 7.319 9 6.636c-.015-.7-.462-1.236-1.193-1.236-.73 0-1.207.537-1.207 1.236 0 .683.462 1.236 1.177 1.236zm-1.117.976V16.8h2.266V8.848H6.66z" fill="#404553"/><path d="M10.266 11.605c0-.951-.033-1.747-.066-2.433h2.2l.117 1.06h.05C12.9 9.734 13.717 9 15.083 9 16.75 9 18 10.045 18 12.291V16.8h-2.534v-4.228c0-.982-.366-1.653-1.283-1.653-.7 0-1.116.452-1.3.89-.066.155-.083.373-.083.592V16.8h-2.534v-5.195z" fill="#404553"/></svg>